<svg xmlns="http://www.w3.org/2000/svg" width="250" height="250" viewBox="0 0 250 250"><rect width="100%" height="100%" fill="#DDDDDD"/><path fill="#999999" d="M48.42 120.03v9.95h-2v-9.95zm1.99 0h2.6l2.54 7.33h.04l2.55-7.33h2.62v9.95h-2v-2.97l.19-4.39-.04-.01-2.67 7.37H54.9l-2.65-7.34-.04.01.19 4.36v2.97h-1.99zm18.23 9.95-.68-2.15h-3.49l-.68 2.15h-2.02l3.43-9.95h2.04l3.41 9.95zm-2.44-7.62-1.24 3.91h2.51l-1.23-3.91zm13.03 2.51v3.75q-.45.59-1.39 1.05-.94.45-2.37.45-1.83 0-2.98-1.13-1.16-1.14-1.16-2.95v-2.08q0-1.8 1.11-2.94t2.86-1.14q1.82 0 2.79.89.97.88.99 2.33l-.02.04h-1.88q-.05-.8-.5-1.26-.46-.46-1.32-.46-.92 0-1.48.71t-.56 1.82v2.09q0 1.14.58 1.84.58.71 1.57.71.69 0 1.12-.14.42-.14.64-.36v-1.84h-1.76v-1.38zm7.83-.8v1.53h-4.12v2.85h4.82v1.53h-6.82v-9.95h6.8v1.53h-4.8v2.51zm9.97-4.04v9.95h-1.99l-4.02-6.8-.04.01v6.79h-2v-9.95h2l4.02 6.79.04-.01v-6.78zm13.4 0v9.95h-1.99l-4.02-6.8-.04.01v6.79h-2v-9.95h2l4.01 6.79.05-.01v-6.78zm9.87 4.08v1.79q0 1.83-1.16 3.03-1.16 1.19-3.01 1.19-1.84 0-2.99-1.19-1.15-1.2-1.15-3.03v-1.79q0-1.83 1.15-3.03 1.14-1.2 2.98-1.2 1.85 0 3.01 1.2 1.17 1.2 1.17 3.03m-2 1.79v-1.81q0-1.16-.58-1.9-.58-.75-1.6-.75t-1.58.74q-.56.75-.56 1.91v1.81q0 1.18.57 1.93.56.74 1.58.74t1.6-.74q.57-.75.57-1.93m10.46 4.08h-3.42v-9.95h3.42q1.82 0 3.01 1.16 1.18 1.17 1.18 2.99v1.65q0 1.83-1.18 2.99-1.19 1.16-3.01 1.16m-.1-8.42h-1.32v6.89h1.32q1.07 0 1.68-.73.61-.72.61-1.89v-1.66q0-1.16-.61-1.88-.61-.73-1.68-.73m7.97-1.53v9.95h-1.99v-9.95zm7.37 7.35q0-.57-.41-.92t-1.43-.66q-1.77-.51-2.68-1.21-.91-.71-.91-1.93t1.04-2 2.66-.78q1.64 0 2.68.87 1.03.88.99 2.15l-.01.05H144q0-.69-.46-1.12-.47-.43-1.3-.43-.8 0-1.24.36-.44.35-.44.91 0 .5.47.83.47.32 1.62.68 1.65.46 2.49 1.21.85.76.85 1.98 0 1.28-1.01 2.02-1 .73-2.66.73-1.63 0-2.84-.83-1.21-.84-1.17-2.35l.01-.04h1.94q0 .89.55 1.3.54.41 1.51.41.82 0 1.25-.33.43-.34.43-.9m7.47-1.01h-1.97v3.61h-2v-9.95h3.97q1.71 0 2.7.87.98.88.98 2.31 0 1.42-.98 2.29-.99.87-2.7.87m-1.97-4.81v3.27h1.97q.83 0 1.26-.45.43-.46.43-1.16 0-.72-.42-1.19-.43-.47-1.27-.47zm15.13 2.55v1.79q0 1.83-1.16 3.03-1.16 1.19-3.01 1.19-1.84 0-2.99-1.19-1.15-1.2-1.15-3.03v-1.79q0-1.83 1.15-3.03 1.14-1.2 2.98-1.2 1.85 0 3.02 1.2 1.16 1.2 1.16 3.03m-2 1.79v-1.81q0-1.16-.58-1.9-.58-.75-1.6-.75t-1.58.74q-.56.75-.56 1.91v1.81q0 1.18.57 1.93.57.74 1.58.74 1.02 0 1.6-.74.57-.75.57-1.93m11.6-5.87v9.95h-1.99l-4.02-6.8-.04.01v6.79h-1.99v-9.95h1.99l4.02 6.79.04-.01v-6.78zm3.99 0v9.95h-2v-9.95zm5.82 9.95h-3.83v-9.95h3.36q1.76 0 2.74.68.99.68.99 2.04 0 .69-.37 1.24-.37.54-1.06.82.89.19 1.34.82.45.62.45 1.45 0 1.43-.95 2.17-.94.73-2.67.73m.15-4.4h-1.99v2.87h1.84q.79 0 1.21-.35.42-.34.42-1.02 0-.73-.36-1.12-.35-.38-1.12-.38m-1.99-4.02v2.64h1.44q.8 0 1.23-.33t.43-.96q0-.69-.43-1.02-.44-.33-1.3-.33zm8.98-1.53v8.42h4.43v1.53h-6.42v-9.95zm11.7 4.04v1.53h-4.12v2.85h4.82v1.53h-6.82v-9.95h6.8v1.53h-4.8v2.51z"/></svg>